# xmcd
#
# Track frame offsets: 
#        150
#        10354
#        21475
#        36082
#        50985
#        66649
#        77207
#        89096
#        102460
#        113097
#        124874
#        135361
#        145778
#        155964
#        166998
#        178396
#        190781
#        199859
#        211826
#        222346
#        233522
#        245466
#        255885
#        267800
#
# Disc length: 3719 seconds
#
# Revision: 4
# Processed by: cddbd v1.5.2PL0 Copyright (c) Steve Scherf et al.
# Submitted via: ExactAudioCopyFreeDBPlugin 1.0
#
DISCID=680e8518
DTITLE=Brook Benton - Brook Benton:  Eight Classic Albums [Real Gone M
DTITLE=usix box set]
DYEAR=2014
DGENRE=Rhythm and Blues
TTITLE0=Lie to Me
TTITLE1=Chains of Love
TTITLE2=Got You on My Mind
TTITLE3=Valley of Tears
TTITLE4=Take Good Care of Her
TTITLE5=My True Confession
TTITLE6=I Got What I Wanted
TTITLE7=Will You Love Me Tomorrow
TTITLE8=Pledging My Love
TTITLE9=Tomorrow Night
TTITLE10=Send for Me
TTITLE11=Looking Back
TTITLE12=When I Grow Too Old to Dream
TTITLE13=There Goes That Song Again
TTITLE14=All of Me
TTITLE15=I Love Paris
TTITLE16=I Didn't Know What Time it Was
TTITLE17=Trouble in Mind
TTITLE18=Blues in the Night
TTITLE19=I Don't Know Why (I Just Do)
TTITLE20=Breezin' Along with the Breeze
TTITLE21=After You've Gone
TTITLE22=I'll Get By (As Long as I Have You)
TTITLE23=Let Me Sing and I'm Happy
EXTD=
EXTT0=
EXTT1=
EXTT2=
EXTT3=
EXTT4=
EXTT5=
EXTT6=
EXTT7=
EXTT8=
EXTT9=
EXTT10=
EXTT11=
EXTT12=
EXTT13=
EXTT14=
EXTT15=
EXTT16=
EXTT17=
EXTT18=
EXTT19=
EXTT20=
EXTT21=
EXTT22=
EXTT23=
PLAYORDER=
